# File created by Blade
# Date/Time:  Tue Apr 07 20:35:32 2015
# Frame Rate: 120.000 fps
#------------------------------------------------------
:FULLY-SPECIFIED
:DEGREES
1697
root 2.635504 34.290599 -5.821559 58.006365 -3.608891 -30.829892
Spine -24.856449 0.670489 11.403169
Head -12.733115 8.671962 14.187174
LeftShoulder -25.220016 41.201843 16.650664
LeftArm 62.065103 -56.341927 -75.525613
LeftForeArm 8.807407 -0.000000 28.353379
LeftHand 12.026071 -0.000000 16.154314
LeftHandThumb1 -26.253704 0.000000 33.147579
RightShoulder -10.423843 -33.205115 -16.252020
RightArm -14.272237 -37.094162 90.946446
RightForeArm 34.553612 -0.000000 16.347439
RightHand 4.614429 -0.000000 19.986869
RightHandThumb1 -24.326973 -0.000000 -32.862282
LeftUpLeg -55.302471 21.119420 18.553631
LeftLeg 4.654147 -0.000000 -0.000000
LeftFoot -11.675007 17.916872 -13.739549
LeftToeBase -7.808130 -0.000000 0.000000
RightUpLeg 9.045932 6.881036 -21.123475
RightLeg 133.211565 -0.000000 -0.000000
RightFoot 42.148351 3.348282 -7.243215
RightToeBase 33.325004 -0.000000 -0.000000
1698
root 2.643877 34.298240 -5.813169 58.007776 -3.512896 -30.623201
Spine -24.925498 0.511724 11.445725
Head -12.888299 8.623011 14.047465
LeftShoulder -25.201417 41.147711 16.654700
LeftArm 61.931053 -56.443439 -75.432466
LeftForeArm 8.676645 -0.000000 28.304026
LeftHand 11.712318 -0.000000 16.120302
LeftHandThumb1 -26.253704 0.000000 33.147579
RightShoulder -10.453536 -32.824750 -16.184765
RightArm -13.979191 -36.007926 90.807739
RightForeArm 32.929708 -0.000000 14.786360
RightHand 4.887843 -0.000000 19.750627
RightHandThumb1 -24.326973 -0.000000 -32.862282
LeftUpLeg -54.941728 20.178271 19.532115
LeftLeg 4.705837 -0.000000 -0.000000
LeftFoot -12.553085 16.514884 -15.133479
LeftToeBase -8.628110 -0.000000 0.000000
RightUpLeg 8.989392 6.586856 -21.127881
RightLeg 132.312239 -0.000000 -0.000000
RightFoot 42.139826 3.278691 -7.135791
RightToeBase 33.118976 -0.000000 -0.000000
1699
root 2.654693 34.303218 -5.801883 58.006120 -3.412859 -30.402366
Spine -25.000855 0.368866 11.482337
Head -13.026689 8.562948 13.901470
LeftShoulder -25.176111 41.126786 16.680670
LeftArm 61.936787 -56.512112 -75.481926
LeftForeArm 8.579073 -0.000000 28.177407
LeftHand 11.822546 -0.000000 16.203218
LeftHandThumb1 -26.253704 0.000000 33.147579
RightShoulder -10.423384 -32.440177 -16.173531
RightArm -13.725818 -34.879351 90.664979
RightForeArm 31.203945 -0.000000 13.343386
RightHand 4.899938 -0.000000 19.612065
RightHandThumb1 -24.326973 -0.000000 -32.862282
LeftUpLeg -54.535191 19.133395 20.614553
LeftLeg 4.681834 -0.000000 -0.000000
LeftFoot -13.203959 15.574061 -16.338808
LeftToeBase -8.746261 -0.000000 0.000000
RightUpLeg 8.948620 6.136941 -21.160006
RightLeg 131.299896 -0.000000 -0.000000
RightFoot 42.408490 2.519181 -6.952097
RightToeBase 33.055000 -0.000000 -0.000000
1700
root 2.664665 34.306231 -5.788837 57.992026 -3.307070 -30.209562
Spine -25.049549 0.297950 11.529292
Head -13.213206 8.461397 13.739528
LeftShoulder -25.124815 41.084365 16.730825
LeftArm 62.073087 -56.552970 -75.666483
LeftForeArm 8.464969 -0.000000 28.024259
LeftHand 12.085774 -0.000000 15.654032
LeftHandThumb1 -26.253704 0.000000 33.147579
RightShoulder -10.411696 -32.104660 -16.179540
RightArm -13.446399 -33.893390 90.529377
RightForeArm 30.065045 -0.000000 11.931958
RightHand 4.835633 -0.000000 19.360902
RightHandThumb1 -24.326973 -0.000000 -32.862282
LeftUpLeg -54.141815 18.122747 21.694223
LeftLeg 4.621915 -0.000000 -0.000000
LeftFoot -13.608277 14.779850 -17.598027
LeftToeBase -8.703216 -0.000000 0.000000
RightUpLeg 8.924476 5.746576 -21.165104
RightLeg 130.350537 -0.000000 -0.000000
RightFoot 42.349409 1.890804 -6.829740
RightToeBase 32.907870 -0.000000 -0.000000
1701
root 2.673308 34.308014 -5.772958 57.976153 -3.196580 -30.074737
Spine -25.084110 0.292239 11.605341
Head -13.407940 8.340283 13.582009
LeftShoulder -25.058113 41.054370 16.812079
LeftArm 62.061489 -56.520652 -75.710869
LeftForeArm 8.494944 -0.000000 27.860122
LeftHand 12.107312 -0.000000 15.595872
LeftHandThumb1 -26.253704 0.000000 33.147579
RightShoulder -10.397198 -31.841062 -16.212807
RightArm -13.163890 -33.233938 90.411605
RightForeArm 29.343210 -0.000000 10.666406
RightHand 4.834477 -0.000000 18.712987
RightHandThumb1 -24.326973 -0.000000 -32.862282
LeftUpLeg -53.819006 17.346641 22.572123
LeftLeg 4.512149 -0.000000 -0.000000
LeftFoot -13.837057 14.040105 -19.024231
LeftToeBase -6.987277 -0.000000 0.000000
RightUpLeg 8.899386 5.449942 -21.116619
RightLeg 129.297865 -0.000000 -0.000000
RightFoot 42.430760 1.502862 -6.661285
RightToeBase 32.981345 -0.000000 -0.000000
1702
root 2.680744 34.306654 -5.753784 57.974765 -3.131581 -29.974020
Spine -25.128009 0.381814 11.621093
Head -13.612194 8.206695 13.481861
LeftShoulder -24.957292 41.010951 16.938325
LeftArm 61.942068 -56.449102 -75.603265
LeftForeArm 8.374884 -0.000000 27.694105
LeftHand 12.123581 -0.000000 15.750058
LeftHandThumb1 -26.253704 0.000000 33.147579
RightShoulder -10.392307 -31.667201 -16.245683
RightArm -12.849222 -32.790129 90.273739
RightForeArm 28.712914 -0.000000 9.527890
RightHand 5.098336 -0.000000 18.121914
RightHandThumb1 -24.326973 -0.000000 -32.862282
LeftUpLeg -53.613190 16.903873 23.079277
LeftLeg 4.357645 -0.000000 -0.000000
LeftFoot -13.648401 13.457975 -20.099458
LeftToeBase -6.241808 -0.000000 0.000000
RightUpLeg 8.841510 5.164613 -21.087337
RightLeg 128.182632 -0.000000 -0.000000
RightFoot 42.620127 1.238791 -6.606317
RightToeBase 32.881398 -0.000000 -0.000000
1703
root 2.689881 34.305524 -5.732852 58.008189 -3.123213 -29.913912
Spine -25.197345 0.521599 11.600534
Head -13.795338 8.121985 13.443665
LeftShoulder -24.890626 40.980349 17.074784
LeftArm 61.854085 -56.334506 -75.526173
LeftForeArm 8.393188 -0.000000 27.484168
LeftHand 12.103960 -0.000000 15.758771
LeftHandThumb1 -26.253704 0.000000 33.147579
RightShoulder -10.303069 -31.400615 -16.351393
RightArm -12.687804 -32.365770 90.163363
RightForeArm 27.753624 -0.000000 8.777109
RightHand 4.661186 -0.000000 17.564490
RightHandThumb1 -24.326973 -0.000000 -32.862282
LeftUpLeg -53.520272 16.793062 23.252043
LeftLeg 4.198803 -0.000000 -0.000000
LeftFoot -13.221492 12.920523 -21.050568
LeftToeBase -5.653965 -0.000000 0.000000
RightUpLeg 8.723871 4.898465 -21.083749
RightLeg 127.020453 -0.000000 -0.000000
RightFoot 42.880279 1.052839 -6.506242
RightToeBase 32.803793 -0.000000 -0.000000
1704
root 2.698625 34.304019 -5.709337 58.051922 -3.142936 -29.890843
Spine -25.272628 0.720272 11.550338
Head -13.958063 8.037735 13.474853
LeftShoulder -24.837841 40.943067 17.202559
LeftArm 61.840936 -56.234858 -75.499292
LeftForeArm 8.419409 0.000000 27.296923
LeftHand 12.148562 -0.000000 15.603587
LeftHandThumb1 -26.253704 0.000000 33.147579
RightShoulder -10.211604 -31.125830 -16.462526
RightArm -12.513558 -32.003161 89.991854
RightForeArm 26.613807 -0.000000 8.211059
RightHand 3.620157 -0.000000 17.590452
RightHandThumb1 -24.326973 -0.000000 -32.862282
LeftUpLeg -53.499980 16.937581 23.170555
LeftLeg 4.041675 -0.000000 -0.000000
LeftFoot -12.564536 12.385010 -21.715407
LeftToeBase -4.698578 -0.000000 0.000000
RightUpLeg 8.595841 4.666581 -21.076399
RightLeg 125.779499 -0.000000 -0.000000
RightFoot 43.074012 0.737450 -6.111698
RightToeBase 32.961311 -0.000000 -0.000000
1705
root 2.705983 34.302407 -5.683559 58.101455 -3.158549 -29.856033
Spine -25.365794 0.925844 11.472386
Head -14.102066 7.937163 13.549137
LeftShoulder -24.828584 40.956950 17.285127
LeftArm 61.958805 -56.097103 -75.505057
LeftForeArm 8.404922 -0.000000 27.026447
LeftHand 12.267533 0.000000 15.506332
LeftHandThumb1 -26.253704 0.000000 33.147579
RightShoulder -10.172941 -30.939286 -16.543472
RightArm -12.237537 -31.769073 89.756521
RightForeArm 25.716525 -0.000000 7.776132
RightHand 2.809857 -0.000000 17.802658
RightHandThumb1 -24.326973 -0.000000 -32.862282
LeftUpLeg -53.599884 17.250978 22.862480
LeftLeg 3.982113 -0.000000 -0.000000
LeftFoot -11.644118 11.765102 -21.971663
LeftToeBase -4.466269 -0.000000 0.000000
RightUpLeg 8.461218 4.410487 -21.060745
RightLeg 124.502274 -0.000000 -0.000000
RightFoot 43.206008 0.285858 -5.644965
RightToeBase 32.954871 -0.000000 -0.000000
1706
root 2.715165 34.298599 -5.656089 58.165334 -3.209791 -29.747750
Spine -25.503753 1.081508 11.304956
Head -14.198820 7.844145 13.673740
LeftShoulder -24.798541 40.949371 17.364590
LeftArm 61.998091 -56.000414 -75.384452
LeftForeArm 8.412333 0.000000 26.762231
LeftHand 12.257066 -0.000000 15.469097
LeftHandThumb1 -26.253704 0.000000 33.147579
RightShoulder -10.064699 -30.626209 -16.698645
RightArm -12.085076 -31.500167 89.594693
RightForeArm 24.720904 -0.000000 7.398144
RightHand 2.270278 -0.000000 17.880580
RightHandThumb1 -24.326973 -0.000000 -32.862282
LeftUpLeg -53.739812 17.514661 22.468513
LeftLeg 3.961932 -0.000000 -0.000000
LeftFoot -10.881093 11.186291 -22.247395
LeftToeBase -4.171177 -0.000000 0.000000
RightUpLeg 8.358585 4.077201 -21.127219
RightLeg 123.176753 -0.000000 -0.000000
RightFoot 43.256959 -0.093543 -5.360720
RightToeBase 32.761351 -0.000000 -0.000000
1707
root 2.733271 34.292962 -5.630603 58.234567 -3.346419 -29.677815
Spine -25.613947 1.311730 11.093090
Head -14.287913 7.743355 13.801879
LeftShoulder -24.749003 40.895230 17.439269
LeftArm 61.987304 -55.941700 -75.241220
LeftForeArm 8.386321 -0.000000 26.543157
LeftHand 12.168832 -0.000000 15.268741
LeftHandThumb1 -26.253704 0.000000 33.147579
RightShoulder -9.918929 -30.230120 -16.893524
RightArm -11.990893 -31.029668 89.398733
RightForeArm 22.792506 -0.000000 7.216487
RightHand 1.876179 -0.000000 17.756879
RightHandThumb1 -24.326973 -0.000000 -32.862282
LeftUpLeg -53.861829 17.801237 22.058542
LeftLeg 3.968266 -0.000000 -0.000000
LeftFoot -10.088360 10.822035 -22.324169
LeftToeBase -3.962255 -0.000000 0.000000
RightUpLeg 8.198913 3.753562 -21.286691
RightLeg 121.806527 -0.000000 -0.000000
RightFoot 43.307043 -0.476295 -5.298906
RightToeBase 32.622856 -0.000000 -0.000000
